<?xml version="1.0" encoding="utf-8"?>
<!-- Generator: Adobe Illustrator 15.1.0, SVG Export Plug-In . SVG Version: 6.00 Build 0)  -->
<!DOCTYPE svg PUBLIC "-//W3C//DTD SVG 1.1//EN" "http://www.w3.org/Graphics/SVG/1.1/DTD/svg11.dtd">
<svg version="1.1" id="Ebene_1" xmlns="http://www.w3.org/2000/svg" xmlns:xlink="http://www.w3.org/1999/xlink" x="0px" y="0px"
	 width="708.66px" height="113.391px" viewBox="0 0 708.66 113.391" enable-background="new 0 0 708.66 113.391"
	 xml:space="preserve">
<g display="none">
	<path display="inline" d="M124.188,83.26c0,7.093-1.264,11.569-3.786,13.438c-2.009,1.398-6.687,2.1-14.028,2.1H78.146
		c-7.401,0-12.079-0.7-14.026-2.1c-2.583-1.867-3.874-6.345-3.874-13.438V54.147c0-7.091,1.291-11.57,3.874-13.438
		c1.947-1.399,6.625-2.1,14.026-2.1h28.228c7.342,0,12.02,0.699,14.028,2.1c2.522,1.867,3.786,6.347,3.786,13.438V83.26z
		 M112.657,76.822V60.587c0-5.226,0.319-9.753-1.526-11.391c-1.919-1.703-6.479-1.487-11.642-1.487H84.945
		c-5.164,0-9.993-0.353-11.712,1.232c-1.895,1.773-1.456,6.419-1.456,11.646v16.235c0,5.227,0.047,9.531,1.94,11.303
		c1.722,1.589,6.063,1.574,11.228,1.574h14.544c5.163,0,9.601,0.104,11.408-1.574C112.705,86.444,112.657,82.049,112.657,76.822z"/>
	<g display="inline">
		<path d="M170.624,98.684h-11.519c-7.507,0-12.254-0.699-14.247-2.104c-2.638-1.868-3.958-6.355-3.958-13.46V26.339
			c0-3.178-0.879-6.589-2.639-10.234l14.431-0.011l0.047,22.451l16.997-0.045l0.003,9.097h-17.055V76.71
			c0,4.948-0.335,8.743,1.492,10.704c1.531,1.678,5.04,2.104,8.753,2.076c2.354-0.018,7.693-0.023,7.693-0.023L170.624,98.684
			L170.624,98.684z"/>
	</g>
	<g display="inline">
		<path d="M246.136,71.215h-49.334v5.476c0,5.365,0.109,9.678,1.983,11.324c1.872,1.646,6.24,1.662,11.452,1.662h34.846l0.016,9.098
			h-41.812c-7.539,0-12.302-0.701-14.288-2.1c-2.629-1.866-3.944-6.345-3.944-13.438V54.123c0-6.158,1.577-10.356,4.733-12.597
			c2.629-1.96,7.128-2.939,13.499-2.939h23.73c7.479,0,13.185,0.743,15.172,2.23c2.632,1.767,3.944,6.181,3.944,13.242v17.155
			H246.136z M234.916,55.958c0.13-7.294-3.742-8.646-12.744-8.272h-11.931c-5.037,0-8.905-0.217-10.779,1.463
			c-2.05,1.867-2.661,4.432-2.661,9.47v3.498h38.027c0-0.65,0.028-1.679,0.087-3.078C234.916,57.639,234.904,56.613,234.916,55.958z
			"/>
	</g>
	<path display="inline" d="M54.582,47.809l-17.299,0.037c-5.246,0-8.744,0.793-10.493,2.378c-1.98,1.773-2.971,5.272-2.971,10.497
		l-0.045,38.213H12.058l0.046-49.689c0-3.64-0.875-7.138-2.624-10.498h14.338v6.454c2.504-5.599,7.518-6.454,15.037-6.454h15.726
		L54.582,47.809L54.582,47.809z"/>
	<path display="inline" fill="#DD0B2F" d="M333.492,44.938h72.003L342.57,83.402c0,0-0.002-26.828-0.005-26.945
		C342.478,53.002,340.98,46.666,333.492,44.938z"/>
	<g display="inline">
		<path d="M306.857,47.671l-17.299,0.037c-5.246,0-8.744,0.793-10.493,2.378c-1.981,1.774-2.972,5.272-2.972,10.498l-0.004,38.228
			l-11.756-0.015l0.046-49.688c0-3.64-0.875-7.138-2.624-10.498h14.338v6.454c2.505-5.6,7.519-6.454,15.037-6.454h15.727V47.671
			L306.857,47.671z"/>
	</g>
	<g display="inline">
		<g>
			<g>
				<path d="M479.818,98.823c-2.055,0-6.956,0-8.896,0H442.56c-7.515,0-12.271-0.7-14.271-2.101
					c-2.643-1.865-3.964-6.346-3.964-13.438V54.173c0-7.091,1.325-11.569,3.972-13.437c2.002-1.4,6.768-2.101,14.296-2.101h33
					V27.999c0-3.918-0.906-7.857-2.727-11.776l14.505,0.007l0.021,82.58L479.818,98.823z M475.594,80.627V47.734h-25.926
					c-5.31,0-9.584-0.042-11.354,1.542c-1.942,1.773-2.183,6.11-2.183,11.335v16.234c0,5.229-0.033,9.653,1.914,11.427
					c1.771,1.586,6.313,1.451,11.622,1.451h18.581c2.299,0,5.048-0.181,6.346-1.859C475.892,86.186,475.594,83.334,475.594,80.627z"
					/>
			</g>
			<g>
				<path d="M688.914,98.757l0.067-38.089c-0.007-5.226,0.562-8.587-1.688-10.725s-6.535-2.14-11.828-2.132l-12.967,0.022
					c-5.293,0.007-9.132,0.457-10.98,2.56c-1.85,2.102-2.503,6.511-2.494,12.016l0.006,36.38l-11.82-0.008l-0.026-49.513
					c-0.004-3.171-0.893-6.668-2.662-10.493l14.471-0.021l0.044,5.826c2.408-4.67,7.613-5.838,15.683-5.849l17.763-0.029
					c7.541-0.011,12.316,0.682,14.32,2.079c2.653,1.862,3.986,6.34,3.994,13.432l-0.076,44.549L688.914,98.757z"/>
			</g>
		</g>
		<g>
			<path d="M626.723,47.671l-17.298,0.037c-5.246,0-8.744,0.793-10.493,2.378c-1.981,1.774-2.971,5.272-2.971,10.498l-0.005,38.228
				L584.2,98.797l0.045-49.688c0-3.64-0.875-7.138-2.623-10.498h14.34v6.454c2.504-5.6,7.518-6.454,15.036-6.454h15.726V47.671
				L626.723,47.671z"/>
		</g>
		<g>
			<path d="M567.297,83.225c0,7.094-1.263,11.57-3.785,13.438c-2.01,1.398-6.688,2.101-14.028,2.101h-28.229
				c-7.4,0-12.078-0.701-14.026-2.101c-2.582-1.866-3.873-6.344-3.873-13.438V54.112c0-7.09,1.291-11.57,3.873-13.438
				c1.948-1.399,6.626-2.1,14.026-2.1h28.229c7.342,0,12.02,0.7,14.028,2.1c2.522,1.867,3.785,6.348,3.785,13.438V83.225z
				 M555.767,76.787V60.552c0-5.227,0.318-9.753-1.527-11.392c-1.918-1.703-6.478-1.487-11.642-1.487h-14.545
				c-5.163,0-9.992-0.354-11.712,1.232c-1.895,1.775-1.456,6.42-1.456,11.646v16.234c0,5.228,0.048,9.531,1.94,11.303
				c1.722,1.59,6.063,1.575,11.228,1.575h14.545c5.164,0,9.601,0.104,11.408-1.575C555.813,86.409,555.767,82.014,555.767,76.787z"
				/>
		</g>
	</g>
	<g display="inline">
		<g>
			<path fill="#808080" d="M401.535,18.366c-2.008-1.402-6.687-2.1-14.024-2.1h-47.669c-7.4,0-12.079,0.697-14.026,2.1
				c-2.582,1.866-3.873,6.346-3.873,13.438v6.558l11.473-0.02c0.038-5.118-0.62-10.084,1.514-11.744
				c1.846-1.438,6.548-1.234,11.712-1.234h33.981c5.163,0,10.112,0.015,12.009,1.594c1.622,1.352,0.979,7.018,1.104,11.423
				l11.588-0.012v-6.564C405.321,24.712,404.06,20.232,401.535,18.366z"/>
		</g>
	</g>
	<g display="inline">
		<g>
			<path fill="#808080" d="M393.687,76.916c-0.125,4.406,0.518,10.072-1.104,11.422c-1.896,1.58-6.846,1.596-12.008,1.596h-33.982
				c-5.164,0-9.867,0.202-11.712-1.233c-2.134-1.662-1.476-6.627-1.513-11.746l-11.473-0.019v6.558
				c0,7.092,1.291,11.572,3.873,13.438c1.947,1.401,6.625,2.101,14.026,2.101h47.668c7.339,0,12.019-0.698,14.024-2.101
				c2.524-1.865,3.786-6.347,3.786-13.438v-6.563L393.687,76.916z"/>
		</g>
	</g>
</g>
<g>
	<path fill="#FFFFFF" d="M123.351,82.455c0,7.093-1.263,11.57-3.786,13.438c-2.009,1.398-6.686,2.1-14.028,2.1H77.309
		c-7.401,0-12.079-0.701-14.026-2.1c-2.583-1.867-3.874-6.345-3.874-13.438V53.342c0-7.091,1.291-11.57,3.874-13.437
		c1.947-1.4,6.625-2.1,14.026-2.1h28.228c7.342,0,12.019,0.699,14.028,2.1c2.523,1.867,3.786,6.346,3.786,13.437V82.455z
		 M111.82,76.017V59.782c0-5.226,0.319-9.753-1.526-11.391c-1.919-1.703-6.479-1.487-11.642-1.487H84.108
		c-5.164,0-9.993-0.353-11.712,1.232c-1.894,1.774-1.456,6.419-1.456,11.646v16.235c0,5.227,0.047,9.531,1.941,11.303
		c1.721,1.589,6.063,1.574,11.227,1.574h14.544c5.163,0,9.601,0.104,11.408-1.574C111.868,85.639,111.82,81.244,111.82,76.017z"/>
	<g>
		<path fill="#FFFFFF" d="M169.786,97.879h-11.519c-7.507,0-12.254-0.699-14.247-2.103c-2.638-1.868-3.958-6.356-3.958-13.46V25.534
			c0-3.178-0.879-6.589-2.639-10.235l14.431-0.011l0.047,22.452l16.997-0.045l0.003,9.096h-17.055v29.114
			c0,4.948-0.335,8.743,1.492,10.704c1.532,1.678,5.041,2.104,8.753,2.076c2.354-0.018,7.694-0.023,7.694-0.023V97.879z"/>
	</g>
	<g>
		<path fill="#FFFFFF" d="M245.299,70.41h-49.334v5.475c0,5.365,0.11,9.678,1.984,11.324c1.872,1.646,6.24,1.662,11.452,1.662
			h34.846l0.015,9.098h-41.811c-7.539,0-12.302-0.701-14.288-2.099c-2.629-1.867-3.945-6.345-3.945-13.438V53.318
			c0-6.158,1.578-10.357,4.734-12.597c2.629-1.96,7.128-2.939,13.499-2.939h23.73c7.479,0,13.185,0.743,15.172,2.23
			c2.632,1.767,3.945,6.181,3.945,13.242V70.41z M234.079,55.154c0.13-7.294-3.742-8.647-12.744-8.273h-11.931
			c-5.037,0-8.905-0.217-10.779,1.463c-2.05,1.867-2.661,4.432-2.661,9.47v3.498h38.027c0-0.65,0.028-1.679,0.087-3.078
			C234.079,56.834,234.067,55.808,234.079,55.154z"/>
	</g>
	<path fill="#FFFFFF" d="M53.744,47.004L36.446,47.04c-5.246,0-8.744,0.793-10.493,2.378c-1.981,1.774-2.971,5.273-2.971,10.497
		l-0.045,38.213H11.221l0.046-49.689c0-3.64-0.875-7.138-2.624-10.498h14.338v6.454c2.504-5.599,7.518-6.454,15.037-6.454h15.726
		V47.004z"/>
	<path fill="#DC0A2F" d="M332.655,44.133h72.003l-62.925,38.465c0,0-0.002-26.828-0.005-26.945
		C341.641,52.197,340.143,45.861,332.655,44.133z"/>
	<g>
		<path fill="#FFFFFF" d="M306.02,46.866l-17.299,0.037c-5.246,0-8.744,0.793-10.493,2.378c-1.981,1.774-2.971,5.272-2.971,10.498
			l-0.004,38.227l-11.756-0.014l0.046-49.689c0-3.64-0.875-7.138-2.624-10.498h14.338v6.454c2.504-5.599,7.518-6.454,15.037-6.454
			h15.726V46.866z"/>
	</g>
	<g>
		<g>
			<g>
				<path fill="#FFFFFF" d="M478.981,98.018c-2.055,0-6.956,0-8.896,0h-28.362c-7.515,0-12.271-0.7-14.27-2.101
					c-2.643-1.865-3.964-6.345-3.964-13.438V53.368c0-7.091,1.325-11.57,3.971-13.437c2.002-1.4,6.768-2.101,14.296-2.101h33V27.194
					c0-3.918-0.906-7.858-2.726-11.777l14.505,0.007l0.021,82.58L478.981,98.018z M474.756,79.822V46.929H448.83
					c-5.309,0-9.584-0.042-11.354,1.542c-1.942,1.774-2.183,6.11-2.183,11.335v16.234c0,5.229-0.033,9.654,1.914,11.427
					c1.771,1.586,6.314,1.451,11.623,1.451h18.581c2.298,0,5.047-0.18,6.345-1.859C475.054,85.381,474.756,82.529,474.756,79.822z"
					/>
			</g>
			<g>
				<path fill="#FFFFFF" d="M688.077,97.952l0.067-38.089c-0.007-5.226,0.561-8.587-1.689-10.725
					c-2.25-2.138-6.535-2.14-11.828-2.132l-12.966,0.023c-5.293,0.007-9.132,0.457-10.981,2.559
					c-1.849,2.102-2.503,6.511-2.494,12.016l0.006,36.38l-11.82-0.008l-0.027-49.513c-0.004-3.171-0.892-6.668-2.662-10.493
					l14.471-0.021l0.044,5.826c2.408-4.67,7.613-5.838,15.682-5.849l17.763-0.029c7.541-0.011,12.316,0.682,14.32,2.079
					c2.654,1.862,3.987,6.34,3.994,13.432l-0.076,44.548L688.077,97.952z"/>
			</g>
		</g>
		<g>
			<path fill="#FFFFFF" d="M625.885,46.866l-17.298,0.037c-5.246,0-8.744,0.793-10.493,2.378c-1.981,1.774-2.971,5.272-2.971,10.498
				l-0.005,38.227l-11.756-0.014l0.045-49.689c0-3.64-0.875-7.138-2.623-10.498h14.339v6.454c2.504-5.599,7.518-6.454,15.037-6.454
				h15.725V46.866z"/>
		</g>
		<g>
			<path fill="#FFFFFF" d="M566.459,82.42c0,7.094-1.262,11.571-3.785,13.438c-2.01,1.398-6.687,2.1-14.028,2.1h-28.229
				c-7.4,0-12.078-0.701-14.026-2.1c-2.582-1.866-3.873-6.344-3.873-13.438V53.307c0-7.09,1.291-11.57,3.873-13.437
				c1.948-1.4,6.626-2.1,14.026-2.1h28.229c7.342,0,12.019,0.7,14.028,2.1c2.523,1.867,3.785,6.347,3.785,13.437V82.42z
				 M554.929,75.982V59.747c0-5.226,0.318-9.752-1.527-11.391c-1.918-1.703-6.478-1.487-11.642-1.487h-14.545
				c-5.163,0-9.992-0.354-11.712,1.232c-1.894,1.775-1.456,6.42-1.456,11.646v16.235c0,5.227,0.048,9.531,1.941,11.303
				c1.721,1.589,6.063,1.575,11.227,1.575h14.545c5.164,0,9.601,0.104,11.408-1.575C554.976,85.604,554.929,81.209,554.929,75.982z"
				/>
		</g>
	</g>
	<g>
		<g>
			<path fill="#9C9B9B" d="M400.698,17.561c-2.008-1.402-6.687-2.1-14.025-2.1h-47.669c-7.4,0-12.079,0.698-14.026,2.1
				c-2.582,1.866-3.873,6.346-3.873,13.437v6.558l11.473-0.019c0.038-5.119-0.621-10.084,1.513-11.745
				c1.846-1.437,6.548-1.234,11.712-1.234h33.982c5.163,0,10.112,0.015,12.008,1.594c1.622,1.351,0.979,7.017,1.104,11.423
				l11.588-0.012v-6.565C404.484,23.907,403.222,19.427,400.698,17.561z"/>
		</g>
	</g>
	<g>
		<g>
			<path fill="#9C9B9B" d="M392.849,76.111c-0.125,4.406,0.518,10.072-1.104,11.422c-1.896,1.58-6.845,1.595-12.007,1.595h-33.983
				c-5.164,0-9.867,0.202-11.712-1.233c-2.133-1.662-1.475-6.627-1.512-11.746l-11.473-0.019v6.558
				c0,7.092,1.291,11.572,3.873,13.438c1.947,1.402,6.625,2.101,14.026,2.101h47.668c7.339,0,12.019-0.698,14.025-2.101
				c2.524-1.865,3.786-6.346,3.786-13.438v-6.564L392.849,76.111z"/>
		</g>
	</g>
</g>
</svg>
